<svg width="3220" height="1818" viewBox="0 0 3220 1818" fill="none" xmlns="http://www.w3.org/2000/svg">
<g id="Frame 2">
<path id="4268" d="M104 1676L77 1751.5H165V1676H104Z" fill="#99AC86"/>
<path id="4267" d="M170.5 1751V1676H227.5V1751H170.5Z" fill="#96A97F"/>
<path id="4266" d="M232.5 1750.5V1676H289V1750.5H232.5Z" fill="#94A77C"/>
<path id="4265" d="M321 1751V1667H377V1751H321Z" fill="#94A77C"/>
<path id="4251" d="M321 1160V1082H377V1160H321Z" fill="#94A77C"/>
<path id="4261" d="M321 1661V1603H409V1661H321Z" fill="#94A77C"/>
<path id="4260" d="M321 1599V1541H409V1599H321Z" fill="#94A77C"/>
<path id="4259" d="M321 1537V1479H409V1537H321Z" fill="#94A77C"/>
<path id="4258" d="M321 1473V1415H409V1473H321Z" fill="#94A77C"/>
<path id="4257" d="M321 1411V1353H409V1411H321Z" fill="#94A77C"/>
<path id="4256" d="M321 1347V1289H409V1347H321Z" fill="#94A77C"/>
<path id="4255" d="M321 1285V1227H409V1285H321Z" fill="#94A77C"/>
<path id="4254" d="M321 1223V1165H409V1223H321Z" fill="#94A77C"/>
<path id="4425" d="M414 1661V1603H503V1661H414Z" fill="#94A77C"/>
<path id="4424" d="M414 1599V1541H503V1599H414Z" fill="#94A77C"/>
<path id="4423" d="M414 1537V1479H503V1537H414Z" fill="#94A77C"/>
<path id="4422" d="M414 1473V1415H503V1473H414Z" fill="#94A77C"/>
<path id="4421" d="M414 1411V1353H503V1411H414Z" fill="#94A77C"/>
<path id="4420" d="M414 1347V1289H503V1347H414Z" fill="#94A77C"/>
<path id="4418" d="M414 1285V1227H503V1285H414Z" fill="#94A77C"/>
<path id="4417" d="M414 1223V1165H503V1223H414Z" fill="#94A77C"/>
<path id="4263" d="M384 1751V1667H440V1751H384Z" fill="#94A77C"/>
<path id="4250" d="M383 1160V1082H440V1160H383Z" fill="#94A77C"/>
<path id="4262" d="M447 1751V1667H503V1751H447Z" fill="#94A77C"/>
<path id="4249" d="M446 1160V1082H503V1160H446Z" fill="#94A77C"/>
<path id="4247" d="M428 1051V976H501V1051H428Z" fill="#94A77C"/>
<path id="4245" d="M443 971V876H501V971H443Z" fill="#94A77C"/>
<path id="4028" d="M489 828V754H563V828H489Z" fill="#94A77C"/>
<path id="4372" d="M531 961.5V876H589V961.5H531Z" fill="#E21A0F"/>
<path id="4374" d="M593.556 961.5V876H651.556V961.5H593.556Z" fill="#94A77C"/>
<path id="4373" d="M656.111 961.5V876H714.111V961.5H656.111Z" fill="#94A77C"/>
<path id="4377" d="M718.667 961.5V876H776.667V961.5H718.667Z" fill="#94A77C"/>
<path id="4376" d="M781.222 961.5V876H839.222V961.5H781.222Z" fill="#94A77C"/>
<path id="4378" d="M843.778 961.5V876H901.778V961.5H843.778Z" fill="#94A77C"/>
<path id="4379" d="M906.333 961.5V876H964.333V961.5H906.333Z" fill="#94A77C"/>
<path id="4380" d="M968.889 961.5V876H1026.89V961.5H968.889Z" fill="#94A77C"/>
<path id="4381" d="M1031.44 961.5V876H1089.44V961.5H1031.44Z" fill="#E21A0F"/>
<path id="4382" d="M1094 961.5V876H1152V961.5H1094Z" fill="#94A77C"/>
<path id="4393" d="M531 1052V966.5H589V1052H531Z" fill="#94A77C"/>
<path id="4392" d="M593.556 1052V966.5H651.556V1052H593.556Z" fill="#94A77C"/>
<path id="4391" d="M656.111 1052V966.5H714.111V1052H656.111Z" fill="#94A77C"/>
<path id="4390" d="M718.667 1052V966.5H776.667V1052H718.667Z" fill="#94A77C"/>
<path id="4389" d="M781.222 1052V966.5H839.222V1052H781.222Z" fill="#94A77C"/>
<path id="4388" d="M843.778 1052V966.5H901.778V1052H843.778Z" fill="#94A77C"/>
<path id="4387" d="M906.333 1052V966.5H964.333V1052H906.333Z" fill="#94A77C"/>
<path id="4385" d="M968.889 1052V966.5H1026.89V1052H968.889Z" fill="#94A77C"/>
<path id="4384" d="M1031.44 1052V966.5H1089.44V1052H1031.44Z" fill="#E21A0F"/>
<path id="4383" d="M1094 1052V966.5H1152V1052H1094Z" fill="#E21A0F"/>
<path id="4147" d="M1831 934V876H1889V934H1831Z" fill="#E21B0F"/>
<path id="4118" d="M1996 935V877H2070V935H1996Z" fill="#E21B0F"/>
<path id="4117" d="M2074 935V877H2148V935H2074Z" fill="#E21B0F"/>
<path id="4116" d="M2152 996V877H2214V996H2152Z" fill="#E21B0F"/>
<path id="4115" d="M2218 996V877H2280V996H2218Z" fill="#94A77C"/>
<path id="4120" d="M1996 997V940H2148V997H1996Z" fill="#94A77C"/>
<path id="4124" d="M1996 1059.5V1002.5H2148V1059.5H1996Z" fill="#94A77C"/>
<path id="4122" d="M1996 1122V1065H2148V1122H1996Z" fill="#94A77C"/>
<path id="4123" d="M1996 1184.5V1127.5H2148V1184.5H1996Z" fill="#94A77C"/>
<path id="4124_2" d="M1996 1247V1190H2148V1247H1996Z" fill="#94A77C"/>
<path id="4125" d="M1996 1309.5V1252.5H2148V1309.5H1996Z" fill="#94A77C"/>
<path id="4126" d="M1996 1372V1315H2148V1372H1996Z" fill="#E11A0E"/>
<path id="4127" d="M1996 1434V1377H2148V1434H1996Z" fill="#E11A0E"/>
<path id="4128" d="M1996 1497V1440H2148V1497H1996Z" fill="#E11A0E"/>
<path id="4114" d="M2153 1559V1377H2218V1559H2153Z" fill="#94A77C"/>
<path id="4112" d="M2223 1559V1377H2285V1559H2223Z" fill="#E11A0D"/>
<path id="4109" d="M2290 1434V1377H2352V1434H2290Z" fill="#E11A0D"/>
<path id="4110" d="M2290 1496V1439H2352V1496H2290Z" fill="#E11A0D"/>
<path id="4111" d="M2290 1559V1502H2352V1559H2290Z" fill="#E11A0D"/>
<path id="4129" d="M1997 1560V1503H2069V1560H1997Z" fill="#E11A0E"/>
<path id="4131" d="M2076 1559V1502H2148V1559H2076Z" fill="#E11A0E"/>
<path id="4114_2" d="M2285 996V877H2352V996H2285Z" fill="#94A77C"/>
<path id="4146" d="M1893.65 934V876H1966.65V934H1893.65Z" fill="#E21B0F"/>
<path id="4147_2" d="M1831 996.65V938.65H1889V996.65H1831Z" fill="#E21B0F"/>
<path id="4149" d="M1893.65 996.65V938.65H1966.65V996.65H1893.65Z" fill="#E21B0F"/>
<path id="4150" d="M1831 1059.3V1001.3H1889V1059.3H1831Z" fill="#E21B0F"/>
<path id="4151" d="M1893.65 1059.3V1001.3H1966.65V1059.3H1893.65Z" fill="#E21B0F"/>
<path id="4152" d="M1831 1121.95V1063.95H1889V1121.95H1831Z" fill="#E21B0F"/>
<path id="4154" d="M1893.65 1121.95V1063.95H1966.65V1121.95H1893.65Z" fill="#E21B0F"/>
<path id="4155" d="M1831 1184.6V1126.6H1889V1184.6H1831Z" fill="#E21B0F"/>
<path id="4156" d="M1893.65 1184.6V1126.6H1966.65V1184.6H1893.65Z" fill="#E21B0F"/>
<path id="4157" d="M1831 1247.25V1189.25H1889V1247.25H1831Z" fill="#E21B0F"/>
<path id="4158" d="M1893.65 1247.25V1189.25H1966.65V1247.25H1893.65Z" fill="#E21B0F"/>
<path id="4159" d="M1831 1309.9V1251.9H1889V1309.9H1831Z" fill="#E21B0F"/>
<path id="4160" d="M1893.65 1309.9V1251.9H1966.65V1309.9H1893.65Z" fill="#E21B0F"/>
<path id="4161" d="M1831 1372.55V1314.55H1889V1372.55H1831Z" fill="#E21B0F"/>
<path id="4162" d="M1893.65 1372.55V1314.55H1966.65V1372.55H1893.65Z" fill="#E21B0F"/>
<path id="4163" d="M1831 1435.2V1377.2H1889V1435.2H1831Z" fill="#E21B0F"/>
<path id="4164" d="M1893.65 1435.2V1377.2H1966.65V1435.2H1893.65Z" fill="#E21B0F"/>
<path id="4165" d="M1831 1497.85V1439.85H1889V1497.85H1831Z" fill="#E21B0F"/>
<path id="4166" d="M1893.65 1497.85V1439.85H1966.65V1497.85H1893.65Z" fill="#E21B0F"/>
<path id="4167" d="M1831 1560.5V1502.5H1889V1560.5H1831Z" fill="#E21B0F"/>
<path id="4168" d="M1893.65 1560.5V1502.5H1966.65V1560.5H1893.65Z" fill="#E21B0F"/>
<path id="4160_2" d="M1831 1623.15V1565.15H1889V1623.15H1831Z" fill="#E21B0F"/>
<path id="4170" d="M1893.65 1623.15V1565.15H1966.65V1623.15H1893.65Z" fill="#E21B0F"/>
<path id="4171" d="M1831 1685.8V1627.8H1889V1685.8H1831Z" fill="#E21B0F"/>
<path id="4172" d="M1893.65 1685.8V1627.8H1966.65V1685.8H1893.65Z" fill="#E21B0F"/>
<path id="4173" d="M1831 1748.45V1690.45H1889V1748.45H1831Z" fill="#E21B0F"/>
<path id="4174" d="M1893.65 1748.45V1690.45H1966.65V1748.45H1893.65Z" fill="#E21B0F"/>
<path id="4384_2" d="M531 1167.5V1082H589V1167.5H531Z" fill="#94A77C"/>
<path id="4415" d="M594 1167.5V1082H652V1167.5H594Z" fill="#94A77C"/>
<path id="4396" d="M657 1167.5V1082H715V1167.5H657Z" fill="#94A77C"/>
<path id="4414" d="M720 1167.5V1082H778V1167.5H720Z" fill="#94A77C"/>
<path id="4399" d="M783 1167.5V1082H841V1167.5H783Z" fill="#94A77C"/>
<path id="4413" d="M846 1167.5V1082H904V1167.5H846Z" fill="#94A77C"/>
<path id="4403" d="M909 1167.5V1082H967V1167.5H909Z" fill="#94A77C"/>
<path id="4412" d="M972 1167.5V1082H1030V1167.5H972Z" fill="#94A77C"/>
<path id="4404" d="M1035 1167.5V1082H1093V1167.5H1035Z" fill="#94A77C"/>
<path id="4411" d="M1098 1167.5V1082H1156V1167.5H1098Z" fill="#94A77C"/>
<path id="4407" d="M531 1258V1172.5H589V1258H531Z" fill="#94A77C"/>
<path id="4395" d="M594 1258V1172.5H652V1258H594Z" fill="#94A77C"/>
<path id="4402" d="M657 1258V1172.5H715V1258H657Z" fill="#94A77C"/>
<path id="4398" d="M720 1258V1172.5H778V1258H720Z" fill="#94A77C"/>
<path id="4401" d="M783 1258V1172.5H841V1258H783Z" fill="#94A77C"/>
<path id="4400" d="M846 1258V1172.5H904V1258H846Z" fill="#94A77C"/>
<path id="4406" d="M909 1258V1172.5H967V1258H909Z" fill="#94A77C"/>
<path id="4405" d="M972 1258V1172.5H1030V1258H972Z" fill="#94A77C"/>
<path id="4409" d="M1035 1258V1172.5H1093V1258H1035Z" fill="#94A77C"/>
<path id="4410" d="M1098 1258V1172.5H1156V1258H1098Z" fill="#94A77C"/>
<path id="4337" d="M532 1333V1286H605V1333H532Z" fill="#94A77C"/>
<path id="4293" d="M1181 924V877H1254V924H1181Z" fill="#E21A0F"/>
<path id="4356" d="M1079 1333V1286H1153V1333H1079Z" fill="#94A77C"/>
<path id="4291" d="M1728 924V877H1802V924H1728Z" fill="#E21A0F"/>
<path id="4347" d="M532 1751V1698H605V1751H532Z" fill="#94A77C"/>
<path id="4296" d="M1181 1342V1289H1254V1342H1181Z" fill="#94A77C"/>
<path id="4370" d="M1080 1752V1699H1153V1752H1080Z" fill="#94A77C"/>
<path id="4299" d="M1729 1343V1290H1802V1343H1729Z" fill="#E21A0F"/>
<path id="4338" d="M532 1389V1338H605V1389H532Z" fill="#94A77C"/>
<path id="4294" d="M1181 980V929H1254V980H1181Z" fill="#E21A0F"/>
<path id="4357" d="M1079 1389V1338H1153V1389H1079Z" fill="#94A77C"/>
<path id="4292" d="M1728 980V929H1802V980H1728Z" fill="#E21A0F"/>
<path id="4346" d="M532 1692V1643H605V1692H532Z" fill="#94A77C"/>
<path id="4295" d="M1181 1283V1234H1254V1283H1181Z" fill="#94A77C"/>
<path id="4361" d="M1080 1693V1644H1153V1693H1080Z" fill="#94A77C"/>
<path id="4298" d="M1729 1284V1235H1802V1284H1729Z" fill="#E21A0F"/>
<path id="4339" d="M610 1389V1286H683V1389H610Z" fill="#94A77C"/>
<path id="4288" d="M1259 980V877H1332V980H1259Z" fill="#E21A0F"/>
<path id="4355" d="M1001 1389V1286H1074V1389H1001Z" fill="#94A77C"/>
<path id="4287" d="M1650 980V877H1723V980H1650Z" fill="#94A77C"/>
<path id="4348" d="M688 1432V1286H746V1432H688Z" fill="#94A77C"/>
<path id="4194" d="M1337 1023V877H1395V1023H1337Z" fill="#94A77C"/>
<path id="4348_2" d="M689 1751V1599H747V1751H689Z" fill="#94A77C"/>
<path id="4200" d="M1338 1342V1190H1396V1342H1338Z" fill="#94A77C"/>
<path id="4350" d="M750 1432V1286H808V1432H750Z" fill="#94A77C"/>
<path id="4193" d="M1399 1023V877H1457V1023H1399Z" fill="#94A77C"/>
<path id="4362" d="M751 1751V1599H809V1751H751Z" fill="#94A77C"/>
<path id="4199" d="M1400 1342V1190H1458V1342H1400Z" fill="#94A77C"/>
<path id="4351" d="M812 1432V1286H870V1432H812Z" fill="#94A77C"/>
<path id="4192" d="M1461 1023V877H1519V1023H1461Z" fill="#E21A0F"/>
<path id="4365" d="M813 1751V1599H871V1751H813Z" fill="#94A77C"/>
<path id="4198" d="M1462 1342V1190H1520V1342H1462Z" fill="#94A77C"/>
<path id="4353" d="M874 1432V1286H932V1432H874Z" fill="#94A77C"/>
<path id="4191" d="M1523 1023V877H1581V1023H1523Z" fill="#94A77C"/>
<path id="4366" d="M875 1751V1599H933V1751H875Z" fill="#94A77C"/>
<path id="4196" d="M1524 1342V1190H1582V1342H1524Z" fill="#94A77C"/>
<path id="4354" d="M936 1432V1286H994V1432H936Z" fill="#94A77C"/>
<path id="4190" d="M1585 1023V877H1643V1023H1585Z" fill="#94A77C"/>
<path id="4367" d="M937 1751V1599H995V1751H937Z" fill="#94A77C"/>
<path id="4195" d="M1586 1342V1190H1644V1342H1586Z" fill="#94A77C"/>
<path id="4344" d="M611 1751V1643H683V1751H611Z" fill="#94A77C"/>
<path id="4289" d="M1260 1342V1234H1332V1342H1260Z" fill="#94A77C"/>
<path id="4369" d="M1002 1752V1644H1074V1752H1002Z" fill="#94A77C"/>
<path id="4290" d="M1651 1343V1235H1723V1343H1651Z" fill="#E21A0F"/>
<path id="4340" d="M532 1450V1394H683V1450H532Z" fill="#94A77C"/>
<path id="4304" d="M1181 1041V985H1332V1041H1181Z" fill="#94A77C"/>
<path id="4342" d="M532 1514V1455H683V1514H532Z" fill="#94A77C"/>
<path id="4305" d="M1181 1105V1046H1332V1105H1181Z" fill="#94A77C"/>
<path id="4343" d="M532 1576V1518H683V1576H532Z" fill="#94A77C"/>
<path id="4306" d="M1181 1167V1109H1332V1167H1181Z" fill="#94A77C"/>
<path id="4345" d="M532 1637V1581H683V1637H532Z" fill="#94A77C"/>
<path id="4307" d="M1181 1228V1172H1332V1228H1181Z" fill="#94A77C"/>
<path id="4368" d="M1002 1637V1581H1153V1637H1002Z" fill="#94A77C"/>
<path id="4303" d="M1651 1228V1172H1802V1228H1651Z" fill="#94A77C"/>
<path id="4360" d="M1002 1573V1517H1153V1573H1002Z" fill="#94A77C"/>
<path id="4302" d="M1651 1164V1108H1802V1164H1651Z" fill="#94A77C"/>
<path id="4359" d="M1002 1512V1456H1153V1512H1002Z" fill="#94A77C"/>
<path id="4301" d="M1651 1103V1047H1802V1103H1651Z" fill="#94A77C"/>
<path id="4358" d="M1002 1451V1395H1153V1451H1002Z" fill="#94A77C"/>
<path id="4300" d="M1651 1042V986H1802V1042H1651Z" fill="#94A77C"/>
<path id="4211" d="M1182 1455.88V1371H1240V1455.88H1182Z" fill="#E11A0E"/>
<path id="4210" d="M1244.25 1455.88V1371H1302.25V1455.88H1244.25Z" fill="#E11A0E"/>
<path id="4209" d="M1306.5 1455.88V1371H1364.5V1455.88H1306.5Z" fill="#E11A0E"/>
<path id="4207" d="M1368.75 1455.88V1371H1426.75V1455.88H1368.75Z" fill="#E11A0E"/>
<path id="4206" d="M1431 1455.88V1371H1489V1455.88H1431Z" fill="#E11A0E"/>
<path id="4205" d="M1493.25 1455.88V1371H1551.25V1455.88H1493.25Z" fill="#E11A0E"/>
<path id="4204" d="M1555.5 1455.88V1371H1613.5V1455.88H1555.5Z" fill="#E11A0E"/>
<path id="4203" d="M1617.75 1455.88V1371H1675.75V1455.88H1617.75Z" fill="#E11A0E"/>
<path id="4202" d="M1680 1455.88V1371H1738V1455.88H1680Z" fill="#E11A0E"/>
<path id="4201" d="M1742.25 1455.88V1371H1800.25V1455.88H1742.25Z" fill="#E11A0E"/>
<path id="4222" d="M1182 1545V1460.12H1240V1545H1182Z" fill="#E11A0E"/>
<path id="4221" d="M1244.25 1545V1460.12H1302.25V1545H1244.25Z" fill="#678146"/>
<path id="4220" d="M1306.5 1545V1460.12H1364.5V1545H1306.5Z" fill="#94A77C"/>
<path id="4218" d="M1368.75 1545V1460.12H1426.75V1545H1368.75Z" fill="#94A77C"/>
<path id="4217" d="M1431 1545V1460.12H1489V1545H1431Z" fill="#E11A0E"/>
<path id="4216" d="M1493.25 1545V1460.12H1551.25V1545H1493.25Z" fill="#94A77C"/>
<path id="4215" d="M1555.5 1545V1460.12H1613.5V1545H1555.5Z" fill="#E11A0E"/>
<path id="4214" d="M1617.75 1545V1460.12H1675.75V1545H1617.75Z" fill="#E11A0E"/>
<path id="4213" d="M1680 1545V1460.12H1738V1545H1680Z" fill="#E11A0E"/>
<path id="4212" d="M1742.25 1545V1460.12H1800.25V1545H1742.25Z" fill="#E11A0E"/>
<path id="4144" d="M1997 1668V1588H2052V1668H1997Z" fill="#E11A0E"/>
<path id="4138" d="M2057 1668V1588H2112V1668H2057Z" fill="#E11A0E"/>
<path id="4137" d="M2117 1668V1588H2172V1668H2117Z" fill="#E11A0E"/>
<path id="4136" d="M2177 1668V1588H2232V1668H2177Z" fill="#E11A0E"/>
<path id="4134" d="M2237 1668V1588H2292V1668H2237Z" fill="#E11A0E"/>
<path id="4132" d="M2297 1668V1588H2352V1668H2297Z" fill="#E11A0E"/>
<path id="4145" d="M1997 1753V1673H2052V1753H1997Z" fill="#E11A0E"/>
<path id="4143" d="M2057 1753V1673H2112V1753H2057Z" fill="#E11A0E"/>
<path id="4140" d="M2117 1753V1673H2172V1753H2117Z" fill="#E11A0E"/>
<path id="4139" d="M2177 1753V1673H2232V1753H2177Z" fill="#E11A0E"/>
<path id="4135" d="M2237 1753V1673H2292V1753H2237Z" fill="#E11A0E"/>
<path id="4133" d="M2297 1753V1673H2352V1753H2297Z" fill="#E11A0E"/>
<path id="4093" d="M2380 1652V1594H2501V1652H2380Z" fill="#E11A0E"/>
<path id="4063" d="M2656 1652V1594H2777V1652H2656Z" fill="#E11A0E"/>
<path id="5128" d="M2931 1653V1595H3052V1653H2931Z" fill="#94A77C"/>
<path id="4094" d="M2380 1751V1656H2438V1751H2380Z" fill="#E11A0E"/>
<path id="4069" d="M2656 1751V1656H2714V1751H2656Z" fill="#E11A0E"/>
<path id="4189" d="M2931 1751V1662H2989V1751H2931Z" fill="#94A77C"/>
<path id="3875" d="M2931 829V755H2989V829H2931Z" fill="#E11A0E"/>
<path id="4106" d="M2379 964V875H2437V964H2379Z" fill="#E11A0E"/>
<path id="4102" d="M2655 964V875H2713V964H2655Z" fill="#E11A0E"/>
<path id="4040" d="M2930 949V875H2988V949H2930Z" fill="#E11A0E"/>
<path id="3919" d="M2930 124V50H2988V124H2930Z" fill="#E11A0E"/>
<path id="4164_2" d="M2719 829V755H2777V829H2719Z" fill="#E11A0E"/>
<path id="4175" d="M2505 828V754H2563V828H2505Z" fill="#E11A0E"/>
<path id="4429" d="M2293 828V754H2351V828H2293Z" fill="#E11A0E"/>
<path id="4458" d="M2081 832V758H2139V832H2081Z" fill="#E11A0E"/>
<path id="3833" d="M1868 832V758H1926V832H1868Z" fill="#E11A0E"/>
<path id="3861" d="M1655 832V758H1713V832H1655Z" fill="#E11A0E"/>
<path id="3890" d="M1444 829V755H1502V829H1444Z" fill="#E11A0E"/>
<path id="3918" d="M1231 830V756H1289V830H1231Z" fill="#E11A0E"/>
<path id="3948" d="M1020 830V756H1078V830H1020Z" fill="#94A77C"/>
<path id="3977" d="M806 830V756H864V830H806Z" fill="#94A77C"/>
<path id="4005" d="M594 827V753H652V827H594Z" fill="#94A77C"/>
<path id="3908" d="M2719 124V50H2777V124H2719Z" fill="#E11A0E"/>
<path id="4426" d="M2505 123V49H2563V123H2505Z" fill="#E11A0E"/>
<path id="4455" d="M2293 123V49H2351V123H2293Z" fill="#E11A0E"/>
<path id="3829" d="M2081 127V53H2139V127H2081Z" fill="#E11A0E"/>
<path id="3858" d="M1868 127V53H1926V127H1868Z" fill="#E11A0E"/>
<path id="3887" d="M1655 127V53H1713V127H1655Z" fill="#94A77C"/>
<path id="3915" d="M1444 124V50H1502V124H1444Z" fill="#E11A0E"/>
<path id="3945" d="M1231 125V51H1289V125H1231Z" fill="#E11A0E"/>
<path id="3973" d="M1020 125V51H1078V125H1020Z" fill="#94A77C"/>
<path id="4002" d="M806 125V51H864V125H806Z" fill="#94A77C"/>
<path id="4153" d="M2781 829V755H2839V829H2781Z" fill="#E11A0E"/>
<path id="4197" d="M2567 828V754H2625V828H2567Z" fill="#E11A0E"/>
<path id="4432" d="M2355 828V754H2413V828H2355Z" fill="#E11A0E"/>
<path id="4460" d="M2143 832V758H2201V832H2143Z" fill="#E11A0E"/>
<path id="3835" d="M1930 832V758H1988V832H1930Z" fill="#E11A0E"/>
<path id="3863" d="M1717 832V758H1775V832H1717Z" fill="#E11A0E"/>
<path id="3892" d="M1506 829V755H1564V829H1506Z" fill="#E11A0E"/>
<path id="3922" d="M1293 830V756H1351V830H1293Z" fill="#E11A0E"/>
<path id="3950" d="M1082 830V756H1140V830H1082Z" fill="#E11A0E"/>
<path id="3979" d="M868 830V756H926V830H868Z" fill="#94A77C"/>
<path id="4007" d="M656 827V753H714V827H656Z" fill="#94A77C"/>
<path id="3897" d="M2781 124V50H2839V124H2781Z" fill="#E11A0E"/>
<path id="4428" d="M2567 123V49H2625V123H2567Z" fill="#E11A0E"/>
<path id="4457" d="M2355 123V49H2413V123H2355Z" fill="#E11A0E"/>
<path id="3832" d="M2143 127V53H2201V127H2143Z" fill="#E11A0E"/>
<path id="3860" d="M1930 127V53H1988V127H1930Z" fill="#E11A0E"/>
<path id="3889" d="M1717 127V53H1775V127H1717Z" fill="#E11A0E"/>
<path id="3917" d="M1506 124V50H1564V124H1506Z" fill="#E11A0E"/>
<path id="3947" d="M1293 125V51H1351V125H1293Z" fill="#E11A0E"/>
<path id="3976" d="M1082 125V51H1140V125H1082Z" fill="#E11A0E"/>
<path id="4004" d="M868 125V51H926V125H868Z" fill="#94A77C"/>
<path id="4142" d="M2844 829V755H2902V829H2844Z" fill="#E11A0E"/>
<path id="4186" d="M2630 828V754H2688V828H2630Z" fill="#E11A0E"/>
<path id="4431" d="M2418 828V754H2476V828H2418Z" fill="#E11A0E"/>
<path id="4459" d="M2206 832V758H2264V832H2206Z" fill="#E11A0E"/>
<path id="3834" d="M1993 832V758H2051V832H1993Z" fill="#E11A0E"/>
<path id="3862" d="M1780 832V758H1838V832H1780Z" fill="#E11A0E"/>
<path id="3891" d="M1569 829V755H1627V829H1569Z" fill="#E11A0E"/>
<path id="3921" d="M1356 830V756H1414V830H1356Z" fill="#E11A0E"/>
<path id="3949" d="M1145 830V756H1203V830H1145Z" fill="#E11A0E"/>
<path id="3978" d="M931 830V756H989V830H931Z" fill="#94A77C"/>
<path id="4006" d="M719 827V753H777V827H719Z" fill="#94A77C"/>
<path id="3886" d="M2844 124V50H2902V124H2844Z" fill="#E11A0E"/>
<path id="4427" d="M2630 123V49H2688V123H2630Z" fill="#E11A0E"/>
<path id="4456" d="M2418 123V49H2476V123H2418Z" fill="#E11A0E"/>
<path id="3830" d="M2206 127V53H2264V127H2206Z" fill="#E11A0E"/>
<path id="3859" d="M1993 127V53H2051V127H1993Z" fill="#E11A0E"/>
<path id="3888" d="M1780 127V53H1838V127H1780Z" fill="#E11A0E"/>
<path id="3916" d="M1569 124V50H1627V124H1569Z" fill="#94A77C"/>
<path id="3946" d="M1356 125V51H1414V125H1356Z" fill="#94A77C"/>
<path id="3974" d="M1145 125V51H1203V125H1145Z" fill="#94A77C"/>
<path id="4003" d="M931 125V51H989V125H931Z" fill="#94A77C"/>
<path id="4086" d="M2812 750V693H2901V750H2812Z" fill="#E11A0E"/>
<path id="4219" d="M2598 749V692H2687V749H2598Z" fill="#E11A0E"/>
<path id="4434" d="M2386 749V692H2475V749H2386Z" fill="#E11A0E"/>
<path id="4462" d="M2174 753V696H2263V753H2174Z" fill="#E11A0E"/>
<path id="3837" d="M1961 753V696H2050V753H1961Z" fill="#E11A0E"/>
<path id="3866" d="M1748 753V696H1837V753H1748Z" fill="#E11A0E"/>
<path id="3894" d="M1537 750V693H1626V750H1537Z" fill="#E11A0E"/>
<path id="3924" d="M1324 751V694H1413V751H1324Z" fill="#E11A0E"/>
<path id="3952" d="M1113 751V694H1202V751H1113Z" fill="#E11A0E"/>
<path id="3981" d="M899 751V694H988V751H899Z" fill="#94A77C"/>
<path id="4010" d="M687 748V691H776V748H687Z" fill="#94A77C"/>
<path id="4075" d="M2812 688V631H2901V688H2812Z" fill="#E11A0E"/>
<path id="4241" d="M2598 687V630H2687V687H2598Z" fill="#E11A0E"/>
<path id="4436" d="M2386 687V630H2475V687H2386Z" fill="#E11A0E"/>
<path id="3811" d="M2174 691V634H2263V691H2174Z" fill="#E11A0E"/>
<path id="3839" d="M1961 691V634H2050V691H1961Z" fill="#E11A0E"/>
<path id="3868" d="M1748 691V634H1837V691H1748Z" fill="#E11A0E"/>
<path id="3896" d="M1537 688V631H1626V688H1537Z" fill="#E11A0E"/>
<path id="3926" d="M1324 689V632H1413V689H1324Z" fill="#E11A0E"/>
<path id="3955" d="M1113 689V632H1202V689H1113Z" fill="#E11A0E"/>
<path id="3982" d="M899 689V632H988V689H899Z" fill="#94A77C"/>
<path id="4012" d="M687 686V629H776V686H687Z" fill="#94A77C"/>
<path id="4064" d="M2812 624V567H2901V624H2812Z" fill="#E11A0E"/>
<path id="4264" d="M2598 623V566H2687V623H2598Z" fill="#E11A0E"/>
<path id="4438" d="M2386 623V566H2475V623H2386Z" fill="#E11A0E"/>
<path id="3813" d="M2174 627V570H2263V627H2174Z" fill="#E11A0E"/>
<path id="3841" d="M1961 627V570H2050V627H1961Z" fill="#E11A0E"/>
<path id="3870" d="M1748 627V570H1837V627H1748Z" fill="#E11A0E"/>
<path id="3899" d="M1537 624V567H1626V624H1537Z" fill="#E11A0E"/>
<path id="3928" d="M1324 625V568H1413V625H1324Z" fill="#E11A0E"/>
<path id="3957" d="M1113 625V568H1202V625H1113Z" fill="#94A77C"/>
<path id="3985" d="M899 625V568H988V625H899Z" fill="#94A77C"/>
<path id="4014" d="M687 622V565H776V622H687Z" fill="#94A77C"/>
<path id="4053" d="M2812 561V504H2901V561H2812Z" fill="#E11A0E"/>
<path id="4275" d="M2598 561V504H2687V561H2598Z" fill="#E11A0E"/>
<path id="4439" d="M2386 561V504H2475V561H2386Z" fill="#E11A0E"/>
<path id="3814" d="M2174 565V508H2263V565H2174Z" fill="#E11A0E"/>
<path id="3843" d="M1961 565V508H2050V565H1961Z" fill="#E11A0E"/>
<path id="3871" d="M1748 565V508H1837V565H1748Z" fill="#E11A0E"/>
<path id="3900" d="M1537 562V505H1626V562H1537Z" fill="#E11A0E"/>
<path id="3929" d="M1324 563V506H1413V563H1324Z" fill="#E11A0E"/>
<path id="3958" d="M1113 563V506H1202V563H1113Z" fill="#94A77C"/>
<path id="3987" d="M899 563V506H988V563H899Z" fill="#94A77C"/>
<path id="4015" d="M687 560V503H776V560H687Z" fill="#94A77C"/>
<path id="3986" d="M2812 500V443H2901V500H2812Z" fill="#E11A0E"/>
<path id="4308" d="M2598 499V442H2687V499H2598Z" fill="#E11A0E"/>
<path id="4443" d="M2386 499V442H2475V499H2386Z" fill="#E11A0E"/>
<path id="3817" d="M2174 503V446H2263V503H2174Z" fill="#E11A0E"/>
<path id="3846" d="M1961 503V446H2050V503H1961Z" fill="#E11A0E"/>
<path id="3874" d="M1748 503V446H1837V503H1748Z" fill="#E11A0E"/>
<path id="3903" d="M1537 500V443H1626V500H1537Z" fill="#E11A0E"/>
<path id="3933" d="M1324 501V444H1413V501H1324Z" fill="#E11A0E"/>
<path id="3961" d="M1113 501V444H1202V501H1113Z" fill="#94A77C"/>
<path id="3990" d="M899 501V444H988V501H899Z" fill="#94A77C"/>
<path id="4018" d="M687 498V441H776V498H687Z" fill="#94A77C"/>
<path id="3975" d="M2812 438V381H2901V438H2812Z" fill="#E11A0E"/>
<path id="4330" d="M2598 437V380H2687V437H2598Z" fill="#E11A0E"/>
<path id="4445" d="M2386 437V380H2475V437H2386Z" fill="#E11A0E"/>
<path id="3819" d="M2174 441V384H2263V441H2174Z" fill="#E11A0E"/>
<path id="3848" d="M1961 441V384H2050V441H1961Z" fill="#E11A0E"/>
<path id="3877" d="M1748 441V384H1837V441H1748Z" fill="#E11A0E"/>
<path id="3905" d="M1537 438V381H1626V438H1537Z" fill="#E11A0E"/>
<path id="3935" d="M1324 439V382H1413V439H1324Z" fill="#94A77C"/>
<path id="3963" d="M1113 439V382H1202V439H1113Z" fill="#94A77C"/>
<path id="3992" d="M899 439V382H988V439H899Z" fill="#94A77C"/>
<path id="4021" d="M687 436V379H776V436H687Z" fill="#94A77C"/>
<path id="4022" d="M687 374V317H776V374H687Z" fill="#94A77C"/>
<path id="4023" d="M687 311V254H776V311H687Z" fill="#94A77C"/>
<path id="4024" d="M687 249V192H776V249H687Z" fill="#94A77C"/>
<path id="4033" d="M720 186V129H776V186H720Z" fill="#94A77C"/>
<path id="4025" d="M720 124V51H776V124H720Z" fill="#94A77C"/>
<path id="3964" d="M2812 374V317H2901V374H2812Z" fill="#E11A0E"/>
<path id="4352" d="M2598 373V316H2687V373H2598Z" fill="#E11A0E"/>
<path id="4447" d="M2386 373V316H2475V373H2386Z" fill="#E11A0E"/>
<path id="3822" d="M2174 377V320H2263V377H2174Z" fill="#E11A0E"/>
<path id="3850" d="M1961 377V320H2050V377H1961Z" fill="#E11A0E"/>
<path id="3879" d="M1748 377V320H1837V377H1748Z" fill="#E11A0E"/>
<path id="3907" d="M1537 374V317H1626V374H1537Z" fill="#E11A0E"/>
<path id="3937" d="M1324 375V318H1413V375H1324Z" fill="#94A77C"/>
<path id="3966" d="M1113 375V318H1202V375H1113Z" fill="#94A77C"/>
<path id="3994" d="M899 375V318H988V375H899Z" fill="#94A77C"/>
<path id="3953" d="M2812 312V255H2901V312H2812Z" fill="#E11A0E"/>
<path id="4375" d="M2598 311V254H2687V311H2598Z" fill="#E11A0E"/>
<path id="4449" d="M2386 311V254H2475V311H2386Z" fill="#E11A0E"/>
<path id="3824" d="M2174 315V258H2263V315H2174Z" fill="#E11A0E"/>
<path id="3852" d="M1961 315V258H2050V315H1961Z" fill="#E11A0E"/>
<path id="3881" d="M1748 315V258H1837V315H1748Z" fill="#E11A0E"/>
<path id="3910" d="M1537 312V255H1626V312H1537Z" fill="#E11A0E"/>
<path id="3939" d="M1324 313V256H1413V313H1324Z" fill="#E11A0E"/>
<path id="3968" d="M1113 313V256H1202V313H1113Z" fill="#E11A0E"/>
<path id="3996" d="M899 313V256H988V313H899Z" fill="#94A77C"/>
<path id="3942" d="M2812 250V193H2901V250H2812Z" fill="#E11A0E"/>
<path id="4397" d="M2598 249V192H2687V249H2598Z" fill="#E11A0E"/>
<path id="4451" d="M2386 249V192H2475V249H2386Z" fill="#E11A0E"/>
<path id="3826" d="M2174 253V196H2263V253H2174Z" fill="#E11A0E"/>
<path id="3855" d="M1961 253V196H2050V253H1961Z" fill="#E11A0E"/>
<path id="3883" d="M1748 253V196H1837V253H1748Z" fill="#E11A0E"/>
<path id="3912" d="M1537 250V193H1626V250H1537Z" fill="#94A77C"/>
<path id="3941" d="M1324 251V194H1413V251H1324Z" fill="#94A77C"/>
<path id="3970" d="M1113 251V194H1202V251H1113Z" fill="#94A77C"/>
<path id="3999" d="M899 251V194H988V251H899Z" fill="#94A77C"/>
<path id="3920" d="M2812 188V131H2901V188H2812Z" fill="#E11A0E"/>
<path id="4419" d="M2598 187V130H2687V187H2598Z" fill="#E11A0E"/>
<path id="4454" d="M2386 187V130H2475V187H2386Z" fill="#E11A0E"/>
<path id="3828" d="M2174 191V134H2263V191H2174Z" fill="#E11A0E"/>
<path id="3857" d="M1961 191V134H2050V191H1961Z" fill="#E11A0E"/>
<path id="3885" d="M1748 191V134H1837V191H1748Z" fill="#E11A0E"/>
<path id="3914" d="M1537 188V131H1626V188H1537Z" fill="#E11A0E"/>
<path id="3944" d="M1324 189V132H1413V189H1324Z" fill="#94A77C"/>
<path id="3972" d="M1113 189V132H1202V189H1113Z" fill="#94A77C"/>
<path id="4001" d="M899 189V132H988V189H899Z" fill="#94A77C"/>
<path id="4130" d="M2719 750V693H2808V750H2719Z" fill="#E11A0E"/>
<path id="4208" d="M2505 749V692H2594V749H2505Z" fill="#E11A0E"/>
<path id="4433" d="M2293 749V692H2382V749H2293Z" fill="#E11A0E"/>
<path id="4461" d="M2081 753V696H2170V753H2081Z" fill="#E11A0E"/>
<path id="3836" d="M1868 753V696H1957V753H1868Z" fill="#E11A0E"/>
<path id="3865" d="M1655 753V696H1744V753H1655Z" fill="#E11A0E"/>
<path id="3893" d="M1444 750V693H1533V750H1444Z" fill="#E11A0E"/>
<path id="3923" d="M1231 751V694H1320V751H1231Z" fill="#E11A0E"/>
<path id="3951" d="M1020 751V694H1109V751H1020Z" fill="#94A77C"/>
<path id="3980" d="M806 751V694H895V751H806Z" fill="#94A77C"/>
<path id="4009" d="M594 748V691H683V748H594Z" fill="#94A77C"/>
<path id="4119" d="M2719 688V631H2808V688H2719Z" fill="#E11A0E"/>
<path id="4230" d="M2505 687V630H2594V687H2505Z" fill="#E11A0E"/>
<path id="4435" d="M2293 687V630H2382V687H2293Z" fill="#E11A0E"/>
<path id="3810" d="M2081 691V634H2170V691H2081Z" fill="#E11A0E"/>
<path id="3838" d="M1868 691V634H1957V691H1868Z" fill="#E11A0E"/>
<path id="3867" d="M1655 691V634H1744V691H1655Z" fill="#E11A0E"/>
<path id="3895" d="M1444 688V631H1533V688H1444Z" fill="#E11A0E"/>
<path id="3925" d="M1231 689V632H1320V689H1231Z" fill="#E11A0E"/>
<path id="3954" d="M1020 689V632H1109V689H1020Z" fill="#94A77C"/>
<path id="3982_2" d="M806 689V632H895V689H806Z" fill="#94A77C"/>
<path id="4011" d="M594 686V629H683V686H594Z" fill="#94A77C"/>
<path id="4108" d="M2719 624V567H2808V624H2719Z" fill="#E11A0E"/>
<path id="4253" d="M2505 623V566H2594V623H2505Z" fill="#E11A0E"/>
<path id="4437" d="M2293 623V566H2382V623H2293Z" fill="#E11A0E"/>
<path id="3812" d="M2081 627V570H2170V627H2081Z" fill="#E11A0E"/>
<path id="3840" d="M1868 627V570H1957V627H1868Z" fill="#E11A0E"/>
<path id="3869" d="M1655 627V570H1744V627H1655Z" fill="#E11A0E"/>
<path id="3989" d="M1444 624V567H1533V624H1444Z" fill="#E11A0E"/>
<path id="3927" d="M1231 625V568H1320V625H1231Z" fill="#E11A0E"/>
<path id="3956" d="M1020 625V568H1109V625H1020Z" fill="#94A77C"/>
<path id="3984" d="M806 625V568H895V625H806Z" fill="#94A77C"/>
<path id="4013" d="M594 622V565H683V622H594Z" fill="#94A77C"/>
<path id="4097" d="M2719 562V505H2808V562H2719Z" fill="#E11A0E"/>
<path id="4286" d="M2505 561V504H2594V561H2505Z" fill="#E11A0E"/>
<path id="4440" d="M2293 561V504H2382V561H2293Z" fill="#E11A0E"/>
<path id="3815" d="M2081 565V508H2170V565H2081Z" fill="#E11A0E"/>
<path id="3844" d="M1868 565V508H1957V565H1868Z" fill="#E11A0E"/>
<path id="3872" d="M1655 565V508H1744V565H1655Z" fill="#E11A0E"/>
<path id="3901" d="M1444 562V505H1533V562H1444Z" fill="#94A77C"/>
<path id="3930" d="M1231 563V506H1320V563H1231Z" fill="#E11A0E"/>
<path id="3959" d="M1020 563V506H1109V563H1020Z" fill="#94A77C"/>
<path id="3988" d="M806 563V506H895V563H806Z" fill="#94A77C"/>
<path id="4016" d="M594 560V503H683V560H594Z" fill="#94A77C"/>
<path id="4042" d="M2719 500V443H2808V500H2719Z" fill="#E11A0E"/>
<path id="4297" d="M2505 499V442H2594V499H2505Z" fill="#E11A0E"/>
<path id="4442" d="M2293 499V442H2382V499H2293Z" fill="#E11A0E"/>
<path id="3816" d="M2081 503V446H2170V503H2081Z" fill="#E11A0E"/>
<path id="3845" d="M1868 503V446H1957V503H1868Z" fill="#E11A0E"/>
<path id="3873" d="M1655 503V446H1744V503H1655Z" fill="#E11A0E"/>
<path id="3902" d="M1444 500V443H1533V500H1444Z" fill="#E11A0E"/>
<path id="3932" d="M1231 501V444H1320V501H1231Z" fill="#E11A0E"/>
<path id="3960" d="M1020 501V444H1109V501H1020Z" fill="#94A77C"/>
<path id="3989_2" d="M806 501V444H895V501H806Z" fill="#94A77C"/>
<path id="4017" d="M594 498V441H683V498H594Z" fill="#94A77C"/>
<path id="4031" d="M2719 438V381H2808V438H2719Z" fill="#E11A0E"/>
<path id="4319" d="M2505 437V380H2594V437H2505Z" fill="#E11A0E"/>
<path id="4444" d="M2293 437V380H2382V437H2293Z" fill="#E11A0E"/>
<path id="3818" d="M2081 441V384H2170V441H2081Z" fill="#E11A0E"/>
<path id="3847" d="M1868 441V384H1957V441H1868Z" fill="#E11A0E"/>
<path id="3876" d="M1655 441V384H1744V441H1655Z" fill="#E11A0E"/>
<path id="3904" d="M1444 438V381H1533V438H1444Z" fill="#E11A0E"/>
<path id="3934" d="M1231 439V382H1320V439H1231Z" fill="#94A77C"/>
<path id="3962" d="M1020 439V382H1109V439H1020Z" fill="#94A77C"/>
<path id="3991" d="M806 439V382H895V439H806Z" fill="#94A77C"/>
<path id="4020" d="M594 436V379H683V436H594Z" fill="#94A77C"/>
<path id="4019" d="M2719 374V317H2808V374H2719Z" fill="#E11A0E"/>
<path id="4341" d="M2505 373V316H2594V373H2505Z" fill="#E11A0E"/>
<path id="4446" d="M2293 373V316H2382V373H2293Z" fill="#E11A0E"/>
<path id="3821" d="M2081 377V320H2170V377H2081Z" fill="#E11A0E"/>
<path id="3849" d="M1868 377V320H1957V377H1868Z" fill="#E11A0E"/>
<path id="3878" d="M1655 377V320H1744V377H1655Z" fill="#E11A0E"/>
<path id="3906" d="M1444 374V317H1533V374H1444Z" fill="#E11A0E"/>
<path id="3936" d="M1231 375V318H1320V375H1231Z" fill="#E11A0E"/>
<path id="3965" d="M1020 375V318H1109V375H1020Z" fill="#94A77C"/>
<path id="3993" d="M806 375V318H895V375H806Z" fill="#94A77C"/>
<path id="4008" d="M2719 312V255H2808V312H2719Z" fill="#E11A0E"/>
<path id="4364" d="M2505 311V254H2594V311H2505Z" fill="#E11A0E"/>
<path id="4448" d="M2293 311V254H2382V311H2293Z" fill="#E11A0E"/>
<path id="3823" d="M2081 315V258H2170V315H2081Z" fill="#E11A0E"/>
<path id="3851" d="M1868 315V258H1957V315H1868Z" fill="#E11A0E"/>
<path id="3880" d="M1655 315V258H1744V315H1655Z" fill="#E11A0E"/>
<path id="3909" d="M1444 312V255H1533V312H1444Z" fill="#94A77C"/>
<path id="3938" d="M1231 313V256H1320V313H1231Z" fill="#94A77C"/>
<path id="3967" d="M1020 313V256H1109V313H1020Z" fill="#94A77C"/>
<path id="3995" d="M806 313V256H895V313H806Z" fill="#94A77C"/>
<path id="3997" d="M2719 250V193H2808V250H2719Z" fill="#E11A0E"/>
<path id="4386" d="M2505 249V192H2594V249H2505Z" fill="#E11A0E"/>
<path id="4450" d="M2293 249V192H2382V249H2293Z" fill="#E11A0E"/>
<path id="3825" d="M2081 253V196H2170V253H2081Z" fill="#E11A0E"/>
<path id="3854" d="M1868 253V196H1957V253H1868Z" fill="#E11A0E"/>
<path id="3882" d="M1655 253V196H1744V253H1655Z" fill="#E11A0E"/>
<path id="3911" d="M1444 250V193H1533V250H1444Z" fill="#94A77C"/>
<path id="3940" d="M1231 251V194H1320V251H1231Z" fill="#E11A0E"/>
<path id="3969" d="M1020 251V194H1109V251H1020Z" fill="#94A77C"/>
<path id="3998" d="M806 251V194H895V251H806Z" fill="#94A77C"/>
<path id="3931" d="M2719 188V131H2808V188H2719Z" fill="#E11A0E"/>
<path id="4408" d="M2505 187V130H2594V187H2505Z" fill="#E11A0E"/>
<path id="4453" d="M2293 187V130H2382V187H2293Z" fill="#E11A0E"/>
<path id="3927_2" d="M2081 191V134H2170V191H2081Z" fill="#E11A0E"/>
<path id="3856" d="M1868 191V134H1957V191H1868Z" fill="#E11A0E"/>
<path id="3884" d="M1655 191V134H1744V191H1655Z" fill="#E11A0E"/>
<path id="3913" d="M1444 188V131H1533V188H1444Z" fill="#94A77C"/>
<path id="3943" d="M1231 189V132H1320V189H1231Z" fill="#E11A0E"/>
<path id="3971" d="M1020 189V132H1109V189H1020Z" fill="#94A77C"/>
<path id="4000" d="M806 189V132H895V189H806Z" fill="#94A77C"/>
<path id="4095" d="M2444 1751V1656H2502V1751H2444Z" fill="#E11A0E"/>
<path id="4068" d="M2720 1751V1656H2778V1751H2720Z" fill="#E11A0E"/>
<path id="5126" d="M2995 1751V1662H3053V1751H2995Z" fill="#94A77C"/>
<path id="4285" d="M2995 829V755H3053V829H2995Z" fill="#E11A0E"/>
<path id="4103" d="M2443 964V875H2501V964H2443Z" fill="#E11A0E"/>
<path id="4101" d="M2719 964V875H2777V964H2719Z" fill="#E11A0E"/>
<path id="5011" d="M2994 949V875H3052V949H2994Z" fill="#E11A0E"/>
<path id="4329" d="M2994 124V50H3052V124H2994Z" fill="#E11A0E"/>
<path id="4096" d="M2506 1751V1656H2564V1751H2506Z" fill="#E11A0E"/>
<path id="4067" d="M2782 1751V1656H2840V1751H2782Z" fill="#E11A0E"/>
<path id="5127" d="M3057 1751V1662H3115V1751H3057Z" fill="#94A77C"/>
<path id="4284" d="M3057 829V755H3115V829H3057Z" fill="#E11A0E"/>
<path id="4453_2" d="M2505 964V875H2563V964H2505Z" fill="#E11A0E"/>
<path id="4100" d="M2781 964V875H2839V964H2781Z" fill="#E11A0E"/>
<path id="5012" d="M3056 949V875H3114V949H3056Z" fill="#E11A0E"/>
<path id="4331" d="M3056 124V50H3114V124H3056Z" fill="#E11A0E"/>
<path id="4098" d="M2568 1751V1656H2626V1751H2568Z" fill="#E11A0E"/>
<path id="4066" d="M2844 1751V1656H2902V1751H2844Z" fill="#E11A0E"/>
<path id="4185" d="M3119 1751V1662H3177V1751H3119Z" fill="#E11A0E"/>
<path id="3864" d="M3119 829V755H3177V829H3119Z" fill="#FF0000"/>
<path id="4454_2" d="M2567 964V875H2625V964H2567Z" fill="#E11A0E"/>
<path id="4099" d="M2843 964V875H2901V964H2843Z" fill="#E11A0E"/>
<path id="4037" d="M3118 949V875H3176V949H3118Z" fill="#94A77C"/>
<path id="3808" d="M3118 124V50H3176V124H3118Z" fill="#E11A0E"/>
<path id="4090" d="M2380 1590V1532H2501V1590H2380Z" fill="#E11A0E"/>
<path id="4062" d="M2656 1590V1532H2777V1590H2656Z" fill="#E11A0E"/>
<path id="5130" d="M2931 1589V1531H3052V1589H2931Z" fill="#94A77C"/>
<path id="4280" d="M2931 750V692H3052V750H2931Z" fill="#E11A0E"/>
<path id="4089" d="M2380 1528V1470H2501V1528H2380Z" fill="#E11A0E"/>
<path id="4059" d="M2656 1528V1470H2777V1528H2656Z" fill="#E11A0E"/>
<path id="5493" d="M2931 1525V1467H3052V1525H2931Z" fill="#94A77C"/>
<path id="4281" d="M2931 687V629H3052V687H2931Z" fill="#94A77C"/>
<path id="4085" d="M2380 1464V1406H2501V1464H2380Z" fill="#E11A0E"/>
<path id="4058" d="M2656 1464V1406H2777V1464H2656Z" fill="#E11A0E"/>
<path id="5491" d="M2931 1461V1403H3052V1461H2931Z" fill="#E11A0E"/>
<path id="3853" d="M2931 625V567H3052V625H2931Z" fill="#E11A0E"/>
<path id="4084" d="M2380 1402V1344H2501V1402H2380Z" fill="#94A77C"/>
<path id="4055" d="M2656 1402V1344H2777V1402H2656Z" fill="#E11A0E"/>
<path id="5490" d="M2931 1397V1339H3052V1397H2931Z" fill="#94A77C"/>
<path id="3842" d="M2931 562V504H3052V562H2931Z" fill="#E11A0E"/>
<path id="4081" d="M2380 1340V1282H2501V1340H2380Z" fill="#94A77C"/>
<path id="4054" d="M2656 1340V1282H2777V1340H2656Z" fill="#E11A0E"/>
<path id="5502" d="M2931 1333V1275H3052V1333H2931Z" fill="#94A77C"/>
<path id="5004" d="M2931 499V441H3052V499H2931Z" fill="#94A77C"/>
<path id="4080" d="M2380 1278V1220H2501V1278H2380Z" fill="#94A77C"/>
<path id="4050" d="M2656 1278V1220H2777V1278H2656Z" fill="#E11A0E"/>
<path id="5500" d="M2931 1269V1211H3052V1269H2931Z" fill="#94A77C"/>
<path id="5002" d="M2931 437V379H3052V437H2931Z" fill="#94A77C"/>
<path id="4077" d="M2380 1214V1156H2501V1214H2380Z" fill="#94A77C"/>
<path id="4049" d="M2656 1214V1156H2777V1214H2656Z" fill="#E11A0E"/>
<path id="5498" d="M2931 1205V1147H3052V1205H2931Z" fill="#94A77C"/>
<path id="5000" d="M2931 376V318H3052V376H2931Z" fill="#94A77C"/>
<path id="4076" d="M2380 1152V1094H2501V1152H2380Z" fill="#94A77C"/>
<path id="4044" d="M2656 1152V1094H2777V1152H2656Z" fill="#E11A0E"/>
<path id="5489" d="M2931 1141V1083H3052V1141H2931Z" fill="#94A77C"/>
<path id="4452" d="M2931 313V255H3052V313H2931Z" fill="#E11A0E"/>
<path id="4072" d="M2380 1088V1030H2501V1088H2380Z" fill="#E11A0E"/>
<path id="4043" d="M2656 1088V1030H2777V1088H2656Z" fill="#E11A0E"/>
<path id="5015" d="M2931 1077V1019H3052V1077H2931Z" fill="#94A77C"/>
<path id="4332" d="M2931 250V192H3052V250H2931Z" fill="#94A77C"/>
<path id="4071" d="M2380 1026V968H2501V1026H2380Z" fill="#94A77C"/>
<path id="4041" d="M2656 1026V968H2777V1026H2656Z" fill="#E11A0E"/>
<path id="5013" d="M2931 1013V955H3052V1013H2931Z" fill="#94A77C"/>
<path id="4333" d="M2931 186V130H3052V186H2931Z" fill="#E11A0E"/>
<path id="4092" d="M2505 1652V1594H2626V1652H2505Z" fill="#E11A0E"/>
<path id="4065" d="M2781 1652V1594H2902V1652H2781Z" fill="#E11A0E"/>
<path id="5129" d="M3056 1653V1595H3177V1653H3056Z" fill="#94A77C"/>
<path id="4091" d="M2505 1590V1532H2626V1590H2505Z" fill="#E11A0E"/>
<path id="4061" d="M2781 1590V1532H2902V1590H2781Z" fill="#E11A0E"/>
<path id="5131" d="M3056 1589V1531H3177V1589H3056Z" fill="#94A77C"/>
<path id="4283" d="M3056 750V692H3177V750H3056Z" fill="#E11A0E"/>
<path id="4088" d="M2505 1528V1470H2626V1528H2505Z" fill="#E11A0E"/>
<path id="4060" d="M2781 1528V1470H2902V1528H2781Z" fill="#E11A0E"/>
<path id="5494" d="M3056 1525V1467H3177V1525H3056Z" fill="#94A77C"/>
<path id="4282" d="M3056 687V629H3177V687H3056Z" fill="#94A77C"/>
<path id="4087" d="M2505 1464V1406H2626V1464H2505Z" fill="#E11A0E"/>
<path id="4057" d="M2781 1464V1406H2902V1464H2781Z" fill="#E11A0E"/>
<path id="5492" d="M3056 1461V1403H3177V1461H3056Z" fill="#94A77C"/>
<path id="4441" d="M3056 625V567H3177V625H3056Z" fill="#E11A0E"/>
<path id="4083" d="M2505 1402V1344H2626V1402H2505Z" fill="#E11A0E"/>
<path id="4056" d="M2781 1402V1344H2902V1402H2781Z" fill="#E11A0E"/>
<path id="5503" d="M3056 1397V1339H3177V1397H3056Z" fill="#94A77C"/>
<path id="4430" d="M3056 562V504H3177V562H3056Z" fill="#E11A0E"/>
<path id="4082" d="M2505 1340V1282H2626V1340H2505Z" fill="#E11A0E"/>
<path id="4052" d="M2781 1340V1282H2902V1340H2781Z" fill="#E11A0E"/>
<path id="5501" d="M3056 1333V1275H3177V1333H3056Z" fill="#E11A0E"/>
<path id="5005" d="M3056 499V441H3177V499H3056Z" fill="#E11A0E"/>
<path id="4079" d="M2505 1278V1220H2626V1278H2505Z" fill="#E11A0E"/>
<path id="4051" d="M2781 1278V1220H2902V1278H2781Z" fill="#E11A0E"/>
<path id="5499" d="M3056 1269V1211H3177V1269H3056Z" fill="#94A77C"/>
<path id="5003" d="M3056 437V379H3177V437H3056Z" fill="#94A77C"/>
<path id="4078" d="M2505 1214V1156H2626V1214H2505Z" fill="#E11A0E"/>
<path id="4048" d="M2781 1214V1156H2902V1214H2781Z" fill="#E11A0E"/>
<path id="5497" d="M3056 1205V1147H3177V1205H3056Z" fill="#94A77C"/>
<path id="5001" d="M3056 376V318H3177V376H3056Z" fill="#94A77C"/>
<path id="4074" d="M2505 1152V1094H2626V1152H2505Z" fill="#E11A0E"/>
<path id="4047" d="M2781 1152V1094H2902V1152H2781Z" fill="#E11A0E"/>
<path id="5486" d="M3056 1141V1083H3177V1141H3056Z" fill="#94A77C"/>
<path id="4030" d="M3056 313V255H3177V313H3056Z" fill="#E11A0E"/>
<path id="4073" d="M2505 1088V1030H2626V1088H2505Z" fill="#E11A0E"/>
<path id="4046" d="M2781 1088V1030H2902V1088H2781Z" fill="#E11A0E"/>
<path id="5016" d="M3056 1077V1019H3177V1077H3056Z" fill="#94A77C"/>
<path id="4335" d="M3056 250V192H3177V250H3056Z" fill="#94A77C"/>
<path id="4070" d="M2505 1026V968H2626V1026H2505Z" fill="#E11A0E"/>
<path id="4045" d="M2781 1026V968H2902V1026H2781Z" fill="#E11A0E"/>
<path id="5014" d="M3056 1013V955H3177V1013H3056Z" fill="#94A77C"/>
<path id="4334" d="M3056 186V130H3177V186H3056Z" fill="#E11A0E"/>
<path id="4243" d="M1182 1659.88V1575H1240V1659.88H1182Z" fill="#E21B10"/>
<path id="4242" d="M1244.25 1659.88V1575H1302.25V1659.88H1244.25Z" fill="#94A77C"/>
<path id="4238" d="M1306.5 1659.88V1575H1364.5V1659.88H1306.5Z" fill="#94A77C"/>
<path id="4237" d="M1368.75 1659.88V1575H1426.75V1659.88H1368.75Z" fill="#94A77C"/>
<path id="4234" d="M1431 1659.88V1575H1489V1659.88H1431Z" fill="#94A77C"/>
<path id="4233" d="M1493.25 1659.88V1575H1551.25V1659.88H1493.25Z" fill="#94A77C"/>
<path id="4229" d="M1555.5 1659.88V1575H1613.5V1659.88H1555.5Z" fill="#E21B10"/>
<path id="4228" d="M1617.75 1659.88V1575H1675.75V1659.88H1617.75Z" fill="#E21B10"/>
<path id="4225" d="M1680 1659.88V1575H1738V1659.88H1680Z" fill="#E21A0E"/>
<path id="4224" d="M1742.25 1659.88V1575H1800.25V1659.88H1742.25Z" fill="#E21A0E"/>
<path id="4244" d="M1182 1749V1664.12H1240V1749H1182Z" fill="#94A77C"/>
<path id="4240" d="M1244.25 1749V1664.12H1302.25V1749H1244.25Z" fill="#E21A0F"/>
<path id="4239" d="M1306.5 1749V1664.12H1364.5V1749H1306.5Z" fill="#E11A0D"/>
<path id="4236" d="M1368.75 1749V1664.12H1426.75V1749H1368.75Z" fill="#94A77C"/>
<path id="4245_2" d="M1431 1749V1664.12H1489V1749H1431Z" fill="#E21A0F"/>
<path id="4232" d="M1493.25 1749V1664.12H1551.25V1749H1493.25Z" fill="#E21B10"/>
<path id="4231" d="M1555.5 1749V1664.12H1613.5V1749H1555.5Z" fill="#E1190D"/>
<path id="4227" d="M1617.75 1749V1664.12H1675.75V1749H1617.75Z" fill="#94A77C"/>
<path id="4226" d="M1680 1749V1664.12H1738V1749H1680Z" fill="#94A77C"/>
<path id="4223" d="M1742.25 1749V1664.12H1800.25V1749H1742.25Z" fill="#94A77C"/>
<path id="4246" d="M359 971L392 876H438V971H359Z" fill="#94A77C"/>
<path id="4027" d="M465.5 671L493.456 599H561V671H465.5Z" fill="#94A77C"/>
<path id="4036" d="M683 374H594V326.828L597.648 317H683V374Z" fill="#94A77C"/>
<path id="4032" d="M437.5 749L463.689 677H562V749H437.5Z" fill="#94A77C"/>
<path id="4029" d="M409.5 828L435.832 754H484V828H409.5Z" fill="#94A77C"/>
<path id="4248" d="M329.5 1051L356.5 976H423V1051H329.5Z" fill="#94A77C"/>
<path id="4269" d="M217 1670V1612H289V1670H217Z" fill="#94A77C"/>
<path id="4271" d="M217 1609V1551H289V1609H217Z" fill="#94A77C"/>
<path id="4272" d="M217 1548V1490H289V1548H217Z" fill="#94A77C"/>
<path id="4273" d="M217 1484V1426H289V1484H217Z" fill="#94A77C"/>
<path id="4277" d="M196.5 1421L217 1365H289V1421H196.5Z" fill="#94A77C"/>
<path id="4278" d="M218.5 1360L240 1300H289V1360H218.5Z" fill="#94A77C"/>
<path id="4279" d="M242 1295L288 1164V1295H242Z" fill="#94A77C"/>
<path id="4026" d="M495 592L561 409V592H495Z" fill="#94A77C"/>
<path id="4035" d="M683 311.5H598.5L642 191H683V311.5Z" fill="#94A77C"/>
<path id="4034" d="M715 186H644L694.935 50H715V186Z" fill="#94A77C"/>
<path id="4276" d="M150.5 1548L194.5 1426H212V1548L150.5 1548Z" fill="#94A77C"/>
<path id="4274" d="M127 1609L148.5 1551H212V1609H127Z" fill="#94A77C"/>
<path id="4270" d="M107 1670L126 1612H212V1670H107Z" fill="#94A77C"/>
</g>
</svg>
